<?xml version="1.0" encoding="utf-8"?>
<!-- Generator: Adobe Illustrator 23.1.1, SVG Export Plug-In . SVG Version: 6.00 Build 0)  -->
<svg version="1.1" id="Layer_1" xmlns="http://www.w3.org/2000/svg" xmlns:xlink="http://www.w3.org/1999/xlink" x="0px" y="0px"
	 viewBox="0 0 679 200" style="enable-background:new 0 0 679 200;" xml:space="preserve">
<g>
	<g>
		<g>
			<path style="fill:#689BD2;" d="M234.046,37.851c5.169-5.568,33.647-7.556,33.647,8.67c0,7.239-3.421,10.5-9.865,12.488
				c8.035,1.671,15.671,6.444,15.671,15.352c0,18.772-34.204,16.703-36.749,17.102C236.591,91.464,236.511,86.531,234.046,37.851z
				 M245.897,53.999c3.261,0,10.023-1.83,9.624-6.682c-0.477-6.203-10.498-2.307-10.42-1.988L245.897,53.999z M248.364,81.044
				c10.34-0.876,12.408-4.455,12.408-9.865c0-6.522-9.069-6.045-13.045-3.658L248.364,81.044z"/>
			<path style="fill:#689BD2;" d="M288.128,35.783h20.283l12.965,51.941L308.092,88.6l-6.283-20.92l-7.317,0.319l-3.74,20.601
				l-16.623,1.034L288.128,35.783z M294.492,58.294l6.125,0.397l-0.399-13.919l-4.453-0.158L294.492,58.294z"/>
			<path style="fill:#689BD2;" d="M321.449,35.466c17.419-3.978,36.351,1.351,37.146,26.646
				c0.557,17.102-10.42,30.067-33.328,26.646L321.449,35.466z M337.833,75.793c9.466,1.034,9.227-31.101-3.341-28.318v0.16
				L337.833,75.793z"/>
			<path style="fill:#31355E;" d="M361.85,88.758l1.75-49.474l10.977,0.555c0.954,1.752,8.51,17.818,9.704,19.409
				c0.078,0,0.158-0.078,0.238-0.078l13.839-16.944l13.204-0.239l7.876,44.702l-14.478,2.864l-5.249-25.373h-0.158l-10.42,17.022
				c-0.796,0-6.363-0.158-7.081-0.158l-6.363-11.853l-0.239,20.044L361.85,88.758z"/>
			<path style="fill:#31355E;" d="M443.611,34.432c14.954,0,20.84,13.124,20.76,26.011c-0.158,15.511-11.135,23.862-22.193,24.498
				c-10.897,0.557-21.794-6.363-21.954-21.475C420.066,47.158,426.191,34.432,443.611,34.432z M442.339,72.213
				c12.965,0,13.681-23.385,0.397-25.055c-6.205,0-9.943,6.125-10.101,13.999C432.634,67.838,436.611,72.213,442.339,72.213z"/>
			<path style="fill:#31355E;" d="M467.623,88.441l0.477-51.148l15.034,0.319l11.454,22.511l0.158,0.158
				c0-0.319,0.16-1.431,0.796-22.828l12.727,1.034l-2.307,46.69l-12.647,1.194l-12.807-23.864l0.399,25.215L467.623,88.441z"/>
			<path style="fill:#31355E;" d="M517.807,79.452c5.648,0.477,14.715,2.227,18.453-4.217c3.183-14.555-23.704-7.714-24.339-23.782
				c-0.637-14.795,13.601-15.829,25.373-17.022c1.591,10.897,1.591,10.977,1.591,10.977c-8.352-2.068-18.533,1.75-12.33,7.636
				c9.865,7.317,21.159,3.818,21.954,21.397c0.637,13.839-15.591,16.385-29.59,16.066L517.807,79.452z"/>
			<path style="fill:#31355E;" d="M553.755,91.464l0.477-43.431l-11.135-0.239l0.635-12.567l34.839,1.589l-0.954,12.727
				l-10.021-0.555l0.239,42.077L553.755,91.464z"/>
			<path style="fill:#31355E;" d="M581.746,37.135c0,0,0.317-0.158,27.68-1.75l1.273,11.773l-16.386,0.239l0.717,8.113l10.42,0.158
				v11.137h-9.307l1.591,10.42c1.75,0,16.068-0.16,17.022,0l0.716,10.658l-28.953,3.181L581.746,37.135z"/>
			<path style="fill:#31355E;" d="M618.648,39.045c0,0,0-0.239,0-0.319c13.839-5.171,40.249-5.967,39.293,14.557
				c-0.317,7.079-3.658,9.624-10.737,11.693c1.589,2.704,8.271,19.409,10.26,21.954c0,0.078,0,0.239,0,0.239
				c-11.851,1.828-12.25,1.828-12.408,1.828l-11.057-20.283l1.99,21.555c0,0.08,0,0.16,0,0.16l-13.045,1.75L618.648,39.045z
				 M632.488,57.34c5.091,0.158,16.306-0.716,12.965-8.035c-2.227-4.852-9.464-4.852-14.477-3.261L632.488,57.34z"/>
		</g>
		<g>
			<path style="fill:#31355E;" d="M182.627,48.542l-15.888,104.209c0,15.415-12.496,27.911-27.911,27.911H48.944
				c-15.415,0-27.911-12.496-27.911-27.911V62.867V28.218c0-9.567,8.419-16.949,17.904-15.699L165.69,29.227
				C175.382,30.504,182.627,38.766,182.627,48.542L182.627,48.542z"/>
			<path style="fill:#689BD2;" d="M164.541,93.518c12.506-6.625,21.068-30.89,37.7-19.332s-1.005,24.7-16.66,26.973
				c-17.686,2.568-28.026,3.668-28.026,3.668"/>
			<path style="fill:#689BD2;" d="M117.946,58.144c-3.898-13.605,7.649-36.6-12.212-40.57S88.633,35.424,97.85,48.281
				c10.413,14.524,16.79,22.738,16.79,22.738"/>
			<g>
				<path style="fill:#689BD2;" d="M33.18,45.273c5.453-3.792,13.704-6.917,20.505-4.315c5.381,2.06,9.094,7.273,11.038,15.495
					c0.887,3.752,1.472,6.78,1.941,9.213c0.972,5.032,2.557,11.574,4.257,13.071c1.8,1.585,4.991-0.197,11.044,0.242
					c2.327,0.169,4.821,1.245,7.825,2.061l-0.678,2.498c-0.126-0.034-0.246-0.066-0.371-0.1L70.883,112.35l-0.522,1.185
					c-0.154-0.067-3.402-1.507-7.173-3.836c-0.499-0.308-1.007-0.633-1.519-0.971c-6.064-4.011-9.45-7.967-10.063-11.757
					c-0.801-4.95-0.403-8.631-0.018-12.191c0.261-2.407,0.525-4.897,0.423-7.809c3.617-1.387,7.393,1.936,7.393,1.936l-3.443-3.424
					c0,0,3.108,0.422,5.887,2.468c-5.422-6.219-8.05-4.965-11.857-2.583l-0.003,0.004c-2.142,0.72-5.634,3.131-8.404,5.651
					l-1.371,1.247l-0.699-1.716c-0.222-0.547-1.839-5.317,4.458-15.634c-2,1.15-4.813,3.584-7.701,7.092l-1.495,1.816l-0.734-2.235
					c-0.081-0.246-1.739-5.553,2.442-13.159c-4.384,0.989-10.422,2.345-10.422,2.345l-1.87,0.42l0.309-1.891
					C24.558,58.942,26.054,50.228,33.18,45.273z"/>
				<g>
					<path style="fill:#FFFFFF;" d="M33.53,57.112c-2.694,0.607-5.468,1.23-6.902,1.552c0.448-1.765,1.698-5.647,4.558-8.973
						C32.418,51.519,33.562,54.049,33.53,57.112z"/>
					<path style="fill:#FFFFFF;" d="M35.663,69.736c-0.173-1.689-0.1-4.977,1.928-9.195c1.715,0.813,3.043,2.124,3.819,3.749
						C39.097,65.995,36.882,68.353,35.663,69.736z"/>
					<path style="fill:#FFFFFF;" d="M44.292,68.278c2.023,1.609,3.535,3.524,4.425,5.523c-2.817,1.135-6.017,3.694-7.572,5.024
						C41.035,77.268,41.316,73.841,44.292,68.278z"/>
				</g>
			</g>
			<path style="fill:#689BD2;" d="M169.837,99.615c3.699,12.408,4.278,26.521-0.61,39.425
				c-8.687,22.932-14.721,41.569-39.733,44.377c-3.005,0.337-5.923,0.383-8.733,0.207c-0.01,0-23.121,0.786-53.09-25.386
				c-6.687-5.295-14.013-13.177-18.05-24.154c-8.687-23.622,5.276-37.362,21.892-55.396c9.316-10.112,22.135-15.9,34.841-18.163
				c8.822-2.585,20.224-3.378,32.215,2.528c-0.243-6.996-4.61-13.965-4.61-13.965s14.526,9.051,14.361,16.708
				c5.704-3.323,6.01-11.265,6.01-11.265s6.358,5.61,2.332,20.61C156.663,75.141,164.962,81.648,169.837,99.615z"/>
			<g>
				<path style="fill:#689BD2;" d="M221.304,161.467c0.95-6.574,0.05-15.35-5.322-20.267c-4.252-3.889-10.575-4.875-18.797-2.932
					c-3.752,0.887-6.721,1.72-9.107,2.389c-4.935,1.384-11.494,2.895-13.594,2.046c-2.223-0.899-2.058-4.551-5.161-9.767
					c-1.193-2.006-3.272-3.753-5.346-6.074l-1.93,1.725c0.087,0.097,0.17,0.191,0.255,0.287l-17.858,28.913l-0.826,0.998
					c0.129,0.107,2.871,2.368,6.642,4.696c0.499,0.308,1.017,0.617,1.548,0.923c6.302,3.626,11.355,4.883,15.018,3.735
					c4.785-1.5,7.898-3.504,10.909-5.442c2.035-1.31,4.144-2.662,6.793-3.874c-0.379-3.855-5.041-5.743-5.041-5.743l4.603,1.546
					c0,0-1.769-2.59-4.842-4.159c7.989,2.064,8.044,4.975,7.618,9.446l-0.002,0.005c0.315,2.238-0.277,6.439-1.29,10.045
					l-0.501,1.784l1.847-0.143c0.588-0.046,5.578-0.736,11.983-10.986c-0.133,2.303-1.05,5.908-2.894,10.061l-0.955,2.15
					l2.327-0.344c0.256-0.038,5.744-0.931,10.673-8.075c1.079,4.363,2.569,10.369,2.569,10.369l0.462,1.86l1.553-1.123
					C212.942,175.296,220.064,170.057,221.304,161.467z"/>
				<g>
					<path style="fill:#FFFFFF;" d="M210.561,166.455c0.664,2.68,1.348,5.44,1.702,6.867c1.378-1.191,4.289-4.047,5.982-8.093
						C216.06,164.944,213.286,165.055,210.561,166.455z"/>
					<path style="fill:#FFFFFF;" d="M198.318,170.199c1.587-0.601,4.495-2.139,7.358-5.84c-1.494-1.169-3.261-1.771-5.063-1.736
						C200.126,165.454,199.009,168.49,198.318,170.199z"/>
					<path style="fill:#FFFFFF;" d="M195.759,161.831c-2.344-1.089-4.734-1.583-6.919-1.484c0.246,3.027-0.609,7.034-1.102,9.02
						C189.178,168.768,192.116,166.982,195.759,161.831z"/>
				</g>
			</g>
			<path style="fill:#FFFFFF;" d="M132.413,102.237l-7.96-4.917l1.819-2.945c0.71-1.15,2.219-1.507,3.369-0.796l3.795,2.344
				c1.15,0.71,1.507,2.219,0.796,3.369L132.413,102.237z"/>
			<path style="fill:#31355E;" d="M108.056,117.168c-2.925,1.681-1.336,5.926,1.801,7.981c3.137,2.055,1.171,8.034-3.743,6.887
				c1.802-0.983,4.259-4.041,0.737-5.174s-5.063-5.697-3.555-8.043c1.508-2.345,3.75-2.427,3.75-2.427"/>
			<path style="fill:#689BD2;" d="M128.321,166.055l-81.006-40.906c-1.657,13.726-16.515,6.506-26.281,7.248v20.354
				c0,5.633,1.674,10.872,4.545,15.259c5.082,2.795,10.86,3.579,15.832,2.19c2.76-0.771,6.409-1.71,10.42-2.705
				c12.271-3.044,24.24,2.954,29.753,13.167h54.589C128.329,166.071,128.321,166.055,128.321,166.055z"/>
			<path style="fill:#31355E;" d="M73.731,171.73c-10.747-9.109-18.253-17.228-18.253-24.298c-2.062,6.776,3.24,15.189,3.24,15.189
				h-6.481l18.512,10.701l0.342,3.316"/>
			<path style="fill:#FFFFFF;" d="M132.888,75.861c-9.41-7.315-15.017-14.613-14.287-18.594c0.296-1.616,1.646-2.771,4.126-3.532
				c2.434-0.747,4.454-0.545,6.18,0.615c2.114,1.422,3.426,4.047,4.227,6.468c0.776,0.264,1.716,0.604,2.693,0.997
				c-0.818-3.134-2.451-7.225-5.633-9.368c-2.305-1.553-5.046-1.858-8.14-0.909c-3.331,1.022-5.253,2.809-5.713,5.314
				c-1.35,7.353,11.244,17.797,15.136,20.822c7.204,5.6,4.697,8.928,0.902,13.965c-1.204,1.598-2.449,3.251-3.413,5.092l2.036,1.066
				c0.877-1.675,2.064-3.251,3.212-4.775C137.983,88.021,141.879,82.85,132.888,75.861z"/>
			<g>
				<path style="fill:#FFFFFF;" d="M153.722,120.971c0,0,0.608-7.989-10.667-14.953c-6.759-4.175-10.589-6.54-12.575-7.767
					c0,0-0.505-0.312-1.831-1.131c-1.986-1.227-5.816-3.592-12.575-7.767c-11.274-6.964-18.146-2.843-18.146-2.843
					s-19.743,10.016-18.422,18.619c1.32,8.603,18.637,16.991,27.069,12.681c0.062-0.032,0.124-0.063,0.185-0.094
					c6.908-3.467,15.112,1.601,15.105,9.329c0,0.069,0,0.138-0.001,0.208c-0.08,9.469,15.174,21.198,23.458,18.527
					C153.605,143.108,153.722,120.971,153.722,120.971z"/>
				<path style="fill:#31355E;" d="M106.534,100.708L106.534,100.708c-0.84-0.519-1.101-1.621-0.582-2.462
					c0.519-0.84,0.259-1.943-0.582-2.462l-1.953-1.206c-0.84-0.519-1.943-0.259-2.462,0.582c-0.519,0.84-1.621,1.101-2.462,0.582
					c-0.84-0.519-1.943-0.259-2.462,0.582l-1.206,1.953c-0.519,0.84-0.259,1.943,0.582,2.462c0.84,0.519,1.101,1.621,0.582,2.462v0
					c-0.519,0.84-0.259,1.943,0.582,2.462l1.953,1.206c0.84,0.519,1.943,0.259,2.462-0.582c0.519-0.84,1.621-1.101,2.462-0.582
					s1.943,0.259,2.462-0.582l1.206-1.953C107.635,102.33,107.375,101.228,106.534,100.708z"/>
				<g>
					<path style="fill:#31355E;" d="M138.72,116.152c-0.179-2.23-2.438-3.625-4.512-2.786c-1.292,0.522-2.129,1.877-2.018,3.267
						c0.179,2.23,2.438,3.625,4.512,2.787C137.995,118.896,138.832,117.541,138.72,116.152z"/>
					<path style="fill:#31355E;" d="M140.79,124.909c-0.179-2.23-2.438-3.625-4.512-2.786c-1.292,0.522-2.129,1.877-2.018,3.267
						c0.179,2.23,2.438,3.625,4.512,2.787C140.065,127.653,140.902,126.298,140.79,124.909z"/>
					<path style="fill:#31355E;" d="M142.86,133.665c-0.179-2.23-2.438-3.625-4.512-2.786c-1.292,0.522-2.129,1.877-2.018,3.267
						c0.179,2.23,2.438,3.625,4.512,2.787C142.135,136.41,142.971,135.055,142.86,133.665z"/>
				</g>
			</g>
			<path style="fill:#31355E;" d="M171.432,100.724c0.706-0.255,20.496-3.357,29.194-11.085c8.129-7.222-2.354-12.831-8.947-4.944
				C184.381,92.935,171.432,100.724,171.432,100.724z"/>
			<path style="fill:#31355E;" d="M109.857,57.812c-3.745-13.369-3.245-36.009-8.886-35.147c-5.641,0.862-3.346,18.906,2.77,27.026
				C109.857,57.812,109.857,57.812,109.857,57.812z"/>
			<g>
				<path style="fill:#31355E;" d="M120.365,146.986l-28.658-17.7c-1.468-0.907-3.394-0.452-4.301,1.017l0,0
					c-5.176,8.38-2.578,19.37,5.802,24.546l3.628,2.241c8.38,5.176,19.37,2.578,24.546-5.802l0,0
					C122.288,149.818,121.833,147.893,120.365,146.986z"/>
				<g>
					<path style="fill:#FFFFFF;" d="M120.365,146.986l-28.658-17.7c-1.468-0.907-3.394-0.452-4.301,1.017h0
						c-0.756,1.225-1.342,2.506-1.773,3.816c0,0,0,0,0,0c0.427,0.16,0.857,0.326,1.289,0.497c1.989,0.787,3.2,2.817,2.975,4.944
						l-0.362,3.425c0,0,0,0,0,0l2.873-1.907c2.201-1.461,5.039-1.57,7.335-0.263c1.128,0.643,2.261,1.314,3.394,2.014
						c0.948,0.586,1.879,1.18,2.791,1.781c2.197,1.448,3.41,3.993,3.133,6.61l-0.38,3.591c0,0,0,0,0,0l2.861-1.899
						c1.802-1.196,4.189-1.037,5.81,0.394c0.482,0.425,0.952,0.851,1.41,1.275c0,0,0,0,0,0c0.979-0.971,1.862-2.069,2.619-3.294l0,0
						C122.288,149.818,121.833,147.893,120.365,146.986z"/>
				</g>
			</g>
			<path style="fill:#31355E;" d="M86.764,157.069c0,0,2.321,5.896,7.795,9.342C85.075,167.926,86.764,157.069,86.764,157.069z"/>
		</g>
		<g>
			<path style="fill:#689BD2;" d="M245.51,101.936l29.549-1.424c-0.119-0.594,0.831,1.899,18.395,78.681l-18.276,3.086
				l-5.104-25.515l-19.463,1.068l-5.696,22.549l-20.292,0.593L245.51,101.936z M262.48,114.16c-4.984,0.475-4.984,0.593-5.104,0.593
				l-4.034,27.177l13.411-0.594L262.48,114.16z"/>
			<path style="fill:#689BD2;" d="M290.725,103.479c2.73-2.374,56.963-12.935,56.963,22.429c0,10.562-6.883,20.055-16.021,22.073
				l14.834,35.84l-18.868,2.372l-15.309-32.991l1.662,32.874l-16.972,1.543L290.725,103.479z M311.255,133.859
				c5.933,0.831,20.292,1.068,20.767-8.188c-0.593-10.206-15.309-11.156-22.429-9.85L311.255,133.859z"/>
			<path style="fill:#689BD2;" d="M366.674,181.328l-1.187-59.81l-12.58-0.594l-0.473-19.58h46.757l-1.899,21.242l-13.174-0.712
				l2.611,59.099L366.674,181.328z"/>
			<path style="fill:#689BD2;" d="M408.683,164.12c3.322,0,25.04,4.748,26.702-5.102c3.917-22.905-32.16-8.426-31.331-36.077
				c0.714-21.006,23.38-21.481,39.638-19.582v16.26c-6.408-0.475-19.224-4.985-19.344,2.491c-0.119,2.966,2.966,4.865,7.12,6.764
				c11.275,5.221,23.972,14.478,23.972,28.364c0,17.681-22.31,30.498-45.451,25.277L408.683,164.12z"/>
		</g>
	</g>
	<g>
		
			<ellipse transform="matrix(0.9874 -0.1584 0.1584 0.9874 -10.4406 18.3278)" style="fill:#D1D3D4;" cx="109.733" cy="74.648" rx="4.266" ry="2.635"/>
		
			<ellipse transform="matrix(0.9874 -0.1584 0.1584 0.9874 -9.2699 17.9325)" style="fill:#D1D3D4;" cx="107.839" cy="67.108" rx="4.266" ry="2.635"/>
		
			<ellipse transform="matrix(0.9874 -0.1584 0.1584 0.9874 -10.1082 16.7801)" style="fill:#D1D3D4;" cx="100.192" cy="71.789" rx="4.266" ry="2.635"/>
	</g>
	<g>
		
			<ellipse transform="matrix(0.9863 -0.1648 0.1648 0.9863 -13.2153 27.8584)" style="fill:#D1D3D4;" cx="161.318" cy="93.589" rx="2.635" ry="4.266"/>
		
			<ellipse transform="matrix(0.9863 -0.1648 0.1648 0.9863 -13.6381 26.6445)" style="fill:#D1D3D4;" cx="153.79" cy="95.531" rx="2.635" ry="4.266"/>
		
			<ellipse transform="matrix(0.9863 -0.1648 0.1648 0.9863 -14.8284 27.528)" style="fill:#D1D3D4;" cx="158.521" cy="103.148" rx="2.635" ry="4.266"/>
	</g>
</g>
</svg>
