<?xml version="1.0" standalone="no"?>
<!DOCTYPE svg PUBLIC "-//W3C//DTD SVG 20010904//EN"
 "http://www.w3.org/TR/2001/REC-SVG-20010904/DTD/svg10.dtd">
<svg version="1.0" xmlns="http://www.w3.org/2000/svg"
 width="2084.000000pt" height="2084.000000pt" viewBox="0 0 2084.000000 2084.000000"
 preserveAspectRatio="xMidYMid meet">
<metadata>
Created by potrace 1.11, written by Peter Selinger 2001-2013
</metadata>
<g transform="translate(0.000000,2084.000000) scale(0.100000,-0.100000)"
fill="#000000" stroke="none">
<path d="M3428 18215 c-2 -1 -37 -5 -78 -9 -359 -29 -720 -220 -963 -511 -156
-186 -285 -465 -312 -675 -3 -19 -8 -46 -11 -60 -10 -37 -13 -11619 -3 -11725
4 -49 11 -108 14 -130 3 -22 8 -55 11 -74 26 -188 129 -510 225 -701 276 -553
752 -999 1307 -1227 96 -39 281 -101 326 -109 16 -3 33 -7 37 -9 10 -7 196
-43 259 -50 30 -4 66 -10 80 -13 14 -4 1233 -8 2709 -9 l2684 -3 71 -24 c157
-53 544 -151 670 -170 21 -4 41 -8 45 -10 3 -2 31 -7 61 -11 30 -3 73 -10 95
-15 22 -4 71 -11 108 -15 37 -3 78 -8 90 -11 125 -24 835 -24 1022 1 17 2 55
7 86 10 31 3 65 7 75 9 11 2 39 7 64 10 45 6 166 28 251 45 105 22 326 82 374
101 11 5 40 15 65 24 25 8 75 26 111 40 37 14 97 27 135 31 428 37 909 228
1269 503 193 148 420 383 535 554 l25 38 121 -5 c67 -3 155 -1 195 5 204 29
612 202 904 384 28 17 62 38 78 45 15 8 27 18 27 23 0 4 4 8 9 8 6 0 61 33
123 73 227 148 528 319 585 333 12 3 20 11 18 17 -3 7 -7 25 -9 40 -25 147
-178 336 -339 418 -21 11 -37 22 -35 25 3 2 78 -21 168 -51 90 -30 166 -53
168 -51 2 2 -24 36 -58 75 -92 107 -183 183 -336 278 -20 12 105 -23 196 -55
60 -21 198 -89 244 -121 66 -45 140 -127 169 -191 44 -92 57 -172 50 -320 -3
-69 -5 -136 -5 -150 0 -14 0 -72 1 -130 0 -58 -2 -123 -4 -145 -9 -95 -16
-154 -26 -210 -32 -190 -40 -230 -54 -280 -8 -27 -16 -61 -19 -75 -4 -20 -35
-133 -62 -222 -5 -17 22 -18 161 -4 173 18 387 149 614 376 53 52 114 118 136
145 22 28 46 56 54 64 28 30 158 209 215 296 33 50 63 94 68 99 12 14 -3 -91
-36 -254 -27 -130 -134 -449 -201 -595 -53 -117 -105 -239 -103 -241 2 -1 23
1 48 6 25 4 68 11 95 14 120 15 206 42 330 103 240 118 482 329 658 572 30 41
48 59 52 50 2 -8 45 -180 95 -384 50 -203 95 -386 101 -405 6 -19 11 -42 13
-50 1 -8 5 -24 9 -35 3 -11 9 -31 11 -45 3 -14 11 -45 17 -70 5 -25 13 -57 16
-72 3 -16 9 -28 13 -28 26 0 236 174 355 294 319 322 519 698 571 1071 3 22 8
51 10 65 25 136 24 584 -1 740 -7 40 -23 132 -30 171 -16 85 -62 239 -102 339
-85 215 -176 354 -327 505 -104 103 -193 169 -306 225 -36 17 -73 36 -84 42
-76 41 -328 102 -470 115 -133 12 -425 5 -512 -11 -10 -2 -41 -7 -69 -10 -92
-13 -259 -47 -420 -87 -88 -22 -171 -42 -185 -45 -14 -2 -45 -11 -70 -19 -25
-8 -97 -27 -160 -44 -63 -16 -189 -51 -280 -76 -137 -38 -315 -85 -380 -100
-191 -44 -315 -69 -390 -81 -19 -3 -46 -7 -60 -10 -66 -12 -155 -18 -260 -18
-220 0 -261 41 -395 399 -37 99 -81 207 -96 239 l-29 59 26 94 c14 51 27 103
30 116 11 47 14 63 19 84 38 168 76 394 90 528 3 33 8 71 10 85 2 14 7 66 10
115 3 50 8 110 10 135 5 46 6 445 2 670 -2 110 3 171 18 245 4 20 13 73 21
130 10 78 25 171 30 200 3 11 7 40 10 65 7 54 10 77 23 155 5 33 13 80 16 105
3 25 8 52 10 60 2 8 7 39 10 69 8 61 13 92 17 97 2 1 30 5 63 9 33 3 67 8 75
10 8 2 42 7 75 10 33 3 67 8 75 10 8 2 38 7 65 10 28 4 62 8 76 11 15 2 47 6
70 9 24 3 55 8 69 10 14 2 45 7 70 10 25 3 56 8 70 10 58 8 117 17 140 20 30
5 160 24 215 31 32 5 152 29 246 49 144 31 387 109 564 181 109 45 396 185
425 207 8 7 31 21 50 32 19 10 40 23 45 27 6 5 33 23 60 40 28 18 64 42 80 55
17 13 35 27 40 31 51 37 181 152 226 199 351 367 432 722 248 1087 -84 165
-193 287 -434 484 -122 100 -390 243 -535 285 -131 39 -170 45 -305 49 -281 7
-540 -90 -840 -316 -151 -114 -361 -312 -562 -530 -40 -43 -73 -73 -73 -67 0
6 9 66 20 134 10 67 22 145 25 172 4 28 8 57 10 65 5 18 12 59 20 125 6 50 14
103 20 134 3 18 14 89 21 136 2 17 6 41 9 55 2 14 7 45 10 70 2 25 7 56 10 70
3 14 7 41 10 60 2 19 7 51 10 70 3 19 7 49 9 65 4 30 23 148 31 194 2 13 7 45
10 70 4 25 15 98 25 161 11 63 22 135 24 160 3 25 8 56 11 70 4 23 10 60 21
140 3 19 9 60 14 90 5 30 12 73 15 95 3 22 10 67 15 100 5 33 12 78 15 100 2
22 7 49 9 60 2 11 7 40 10 65 3 25 8 54 10 65 9 53 16 94 22 140 3 28 8 58 9
67 2 9 11 68 20 130 39 261 -22 588 -166 884 -45 94 -146 259 -180 294 -8 8
-27 33 -44 55 -51 69 -205 215 -308 291 -54 41 -99 74 -101 74 -2 0 -33 17
-67 38 -72 44 -214 112 -233 112 -7 0 -16 4 -22 9 -9 9 -151 56 -196 65 -13 3
-54 12 -93 20 -38 8 -95 17 -125 21 -30 3 -66 8 -80 10 -14 2 -63 9 -110 15
-47 6 -96 13 -110 15 -14 2 -47 6 -75 10 -27 3 -61 8 -75 10 -14 2 -47 6 -75
10 -49 6 -252 32 -310 40 -16 2 -52 7 -80 10 -27 3 -61 8 -75 10 -14 3 -47 7
-75 11 -27 3 -61 7 -75 9 -34 5 -89 12 -190 25 -47 6 -114 15 -150 20 -36 5
-87 12 -115 15 -61 7 -110 14 -150 20 -16 3 -52 7 -80 10 -27 3 -61 8 -75 10
-14 3 -50 7 -80 11 -30 3 -64 8 -75 10 -11 2 -45 6 -75 10 -30 3 -66 7 -80 10
-14 2 -45 6 -70 9 -25 3 -74 10 -110 15 -36 5 -87 12 -115 15 -88 11 -119 15
-150 19 -16 3 -52 8 -80 11 -27 4 -61 8 -75 10 -14 2 -47 7 -75 10 -27 3 -95
12 -150 20 -55 8 -127 17 -160 21 -33 3 -68 8 -79 10 -10 2 -44 6 -75 10 -31
3 -63 8 -71 9 -9 2 -43 6 -75 10 -33 4 -68 9 -79 11 -10 2 -44 6 -75 10 -31 3
-63 8 -71 9 -9 2 -43 6 -75 10 -33 4 -67 9 -75 10 -8 2 -40 6 -70 10 -30 3
-66 8 -80 10 -14 2 -50 6 -80 10 -30 3 -80 10 -110 15 -30 5 -82 12 -115 15
-33 3 -71 8 -85 10 -14 3 -45 7 -70 10 -25 3 -54 8 -65 10 -11 2 -32 4 -46 4
-18 1 -52 27 -120 94 -52 51 -128 115 -168 142 -157 102 -380 186 -581 220
-19 3 -43 8 -52 11 -43 13 -246 30 -344 28 -278 -4 -458 -61 -631 -201 -44
-36 -56 -37 -183 -19 -77 11 -203 28 -315 42 -22 2 -74 9 -115 15 -127 17
-133 18 -185 24 -27 4 -61 8 -75 10 -23 4 -273 36 -380 50 -25 3 -62 8 -84 10
-21 3 -50 7 -65 9 -35 6 -98 15 -146 21 -22 2 -58 7 -80 10 -88 11 -123 15
-195 25 -41 6 -89 13 -107 15 -18 3 -58 7 -89 10 -32 3 -60 7 -63 9 -3 2 -40
7 -81 11 -41 4 -78 9 -81 11 -3 1 -32 5 -65 9 -33 3 -69 7 -80 9 -11 2 -47 7
-79 11 -60 7 -93 12 -150 20 -16 2 -52 7 -79 11 -27 3 -56 7 -65 9 -9 1 -45 6
-81 10 -36 4 -74 9 -85 11 -11 2 -42 6 -70 9 -27 3 -61 8 -75 10 -14 2 -50 7
-80 10 -30 3 -62 7 -70 10 -8 2 -40 7 -70 9 -30 3 -64 7 -75 10 -11 2 -45 7
-76 10 -31 4 -65 8 -75 10 -11 2 -46 7 -79 11 -32 4 -67 8 -75 10 -9 2 -43 6
-76 9 -32 4 -66 8 -74 11 -8 2 -46 7 -85 10 -38 4 -72 8 -75 10 -3 1 -36 6
-75 10 -38 4 -72 8 -75 10 -3 1 -36 6 -75 10 -38 4 -72 8 -75 10 -3 1 -34 6
-70 9 -36 4 -74 9 -85 11 -11 2 -47 7 -80 10 -32 4 -62 8 -65 10 -3 1 -36 6
-73 10 -37 3 -77 8 -89 10 -11 2 -41 7 -67 10 -78 9 -135 16 -161 21 -76 12
-304 26 -312 19z"/>
</g>
</svg>
